<svg width="46" height="33" fill="none" xmlns="http://www.w3.org/2000/svg"><path d="M40 15.2c3.7-1.8 5.7-4.8 5.7-8.2 0-3.3-1.6-5.3-4.6-5.6l-.4-.3c-1.5-1.2-4-1.4-7-.6L0 9.5v22.7l3.5-.9V33l6-1.6v-8l21.8-5.7 4.2 5.1 2.3-.5 1.1 1.3 7.1-1.8-6-6.6zm-4.3 7l-5.3-6.5L6 22.2v8L.5 31.5V9.8L34 1c2.8-.8 5-.6 6.5.5 1.2.9 1.8 2.4 1.8 4.4 0 3.4-2 6.2-5.6 8h-.3l6 6.6-6.6 1.7z" fill="#000"/><path d="M36 6.1c-.5-.4-1.3-.4-2.3-.2L6 13.2v4.5l27.8-7.3c1.8-.5 2.8-1.6 2.8-3 0-.5-.2-1-.6-1.3zM33.7 10L9.6 16.3v-1.7l26.5-7c0 1-1 1.9-2.4 2.3z" fill="#000"/></svg>
